<?xml version="1.0" encoding="UTF-8"?>
<svg id="Layer_1" data-name="Layer 1" xmlns="http://www.w3.org/2000/svg" viewBox="0 0 306.34 146.93">
  <path d="M121.9.17c2.04,15.17-12.57,11.64-21.46,15.52-3.41,1.48-6.31,5.51-10.46,7.54-20.24,9.88-40.58,19.62-61.11,28.89-4.96,2.82-7.84,11.69-1.66,13.73,12.92,3.11,25.78-4.78,37.91-5.5,46.39-2.75,95.22-2.32,141.87-2.29,26.23.02,64-3.38,89.43,2.59,6.98,1.64,11.33,3.77,9.5,11.5-9.21,1.18-17.93-2.12-27.04-2.15-65.45-.2-132.68,1.32-198.3,4.91-9.43.52-40.93,1.25-46.61,6.29-1.84,1.63-2.62,2.17-2.04,4.92,24.03,16.33,52.99,25.22,75.14,44.04l-3.15,5.95c4.87.32,8.16,5.29,7.99,10.03-6.1,5.87-38.48-23.58-45.35-27.63-18.25-10.76-43.13-19.21-57.55-34.5-1.95-2.07-5.74-3.2-6.54-4.41-2.85-4.31-3.43-17.73-.65-22.56,4.8-8.35,63.22-33.99,75.88-40.1C91.69,10.19,103.93-1.57,121.9.17Z"/>
</svg>