<?xml version="1.0" encoding="UTF-8"?>
<svg id="Layer_1" data-name="Layer 1" xmlns="http://www.w3.org/2000/svg" viewBox="0 0 374.81 155.98">
  <g>
    <path d="M292,.35c8.64.22,18.6.51,27.54.96,24.78,1.24,45.36-.64,51.8,28.14,4.67,20.88,4.92,81.11-1.08,101.37-5.19,17.54-15.36,21.65-32.72,23.23-33.31,3.02-69.62,1.81-103,.92-17.04-.46-50.82,1.68-65.22-5.76-18.58-9.61-16.75-40.67-17.28-58.59-.57-19.27-1.59-44.82,3.26-63.52C162.22.41,183.3,2.47,206.46,1.31c8.95-.45,18.9-.74,27.54-.96,18.92-.47,39.08-.47,58,0ZM279,26.3c-4.44.62-10.54-1.56-14,1.5v98.28h14v-6.98c6.5,7.25,19.67,13.02,24.74,1.24,3.52-8.18,3.01-39.56,2.31-49.67-1.38-19.81-12.06-26.24-27.05-11.43V26.3ZM217,27.29h-47v13.97h14.5l1.5,1.5v83.31c4.74-.66,11.24,1.61,15-1.5V41.26h16v-13.97ZM356,90.15v-20.45c0-1.03-2.72-8.14-3.55-9.43-8.21-12.79-28.14-11.63-34.86,2.04-3.77,7.68-3.32,32.97-2.64,42.35.69,9.58,4.65,18.55,14.6,21.35,18.63,5.23,28.8-9.8,26.44-26.88h-14c1.61,6.15-1.13,19.91-10.02,14.48-.39-.24-2.98-4.71-2.98-5v-16.96l1.5-1.5h25.5ZM229,52.24h-14v66.35c0,.46,2.69,5.6,3.31,6.18,7.13,6.67,16.7-1.48,21.68-6.68v7.98h14.01V52.24h-14v56.37c0,.74-6.99,7.61-9.35,5.36l-1.65-1.37v-60.36Z"/>
    <path d="M283.72,64.41c6.72-1.47,7.71,2.66,8.26,8.29.8,8.15.86,25.75-.1,33.79-1.2,10.07-10.09,10.83-12.94,2.16,1.65-11.74-2.05-28.92.07-39.94.44-2.27,2.54-3.83,4.7-4.31Z"/>
    <path d="M342.01,79.18h-13.01c-3.43-20.61,16.44-20.61,13.01,0Z"/>
  </g>
  <g>
    <path d="M0,26.3l15.9.1c3.21,11.42,5.17,24.29,8.96,35.45.44,1.31.29,3.05,2.12,3.36l10.51-38.91h14.5c-4.23,13.89-8.52,27.77-12.73,41.67-.87,2.86-6.27,15.8-6.27,16.7v41.41h-14v-42.4L0,27.29v-1Z"/>
    <path d="M114,52.24v60.36c0,.4,2.14,1.83,2.89,2,2.89.65,9.11-4.88,9.11-6.99v-55.37h14v73.83h-14l-.5-7.98c-4.91,6.07-16.92,13.79-22.73,4.71-.9-1.41-2.77-7.86-2.77-9.21v-61.36h14Z"/>
    <path d="M65.76,51.51c11.67-1.6,21.89,5.19,23.25,17.19,1.14,10.12,2,34.11-.44,43.46-5.57,21.34-36.13,19.01-38.56-2.55-1.14-10.14-1.56-35.36,1.07-44.84,1.86-6.71,7.67-12.3,14.7-13.27ZM73.77,65.45c-1.71-1.71-6.02-1.45-8.11-.32-1.32.86-2.49,5.84-2.66,7.56-.77,7.68-.91,26.37.09,33.84,1.47,10.94,11.7,10.96,12.91.09.89-7.93.81-25.92,0-33.93-.16-1.57-1.3-6.31-2.24-7.24Z"/>
  </g>
</svg>