<?xml version="1.0" encoding="UTF-8"?>
<svg xmlns="http://www.w3.org/2000/svg" viewBox="0 0 3802.66 3802.66">
  <defs>
    <style>
      .cls-1 {
        fill: #fff;
      }
    </style>
  </defs>
  <g id="Layer_2" data-name="Layer 2">
    <circle class="cls-1" cx="1901.33" cy="1901.33" r="1901.33"/>
  </g>
  <g id="Layer_1" data-name="Layer 1">
    <path d="M1778.93,1091.39c-4.45,4.94-9.08,9.79-13.47,14.79-2.86-2.79-6.01-5.32-8.89-8.08l12.68-13.96c1.72-1.39,7.57,5.48,9.67,7.25h0Z"/>
    <path d="M1778.93,1091.39c17.84-19.78,36.02-39.39,53.87-59.16l8.87,8.09,24.24-26.62,310.52,282.8,11.57-13.99-6.97-8.88,145.44-159.7,8.87,8.08,107.73-118.3,8.87,8.09,11.5-15.42-6.91-7.46,91.57-100.55,8.87,8.08,67.33-73.93,8.87,8.08,116.49-127.91c1.82-6.64-15.62-15.98-15.74-18.38l11.07-12.55-.2-4.24-24.02-22.24,11.58-13.99-6.98-8.88,11.51-15.4-6.91-7.46,67.33-73.93,8.87,8.09,13.46-14.82,17.75,16.19,10.77-11.84,44.36,40.4,13.47-14.79,281.69,256.54c.85,7.22-7.38,11.44-11.26,16.81.12,2.4,17.56,11.74,15.74,18.38l-62.62,68.76-8.87-8.08-26.93,29.57-17.74-16.17-13.46,14.82-8.87-8.11-13.47,14.8-26.62-24.24-90.9,99.81-4.14-.23-4.53-5.18c-1.76-.27-2.97.79-4.25,1.78-9.5,7.32-39.44,41.19-47.27,51.75-6.84,9.23,7.76,9.45,3.62,13.99l-89.55,98.33-8.87-8.08-26.93,29.57-8.87-8.08-134.67,147.87-8.87-8.08-24.24,26.62-8.87-8.08-134.67,147.87,239.55,218.16,13.47-14.79,42.14,38.38c.85,7.22-7.38,11.44-11.26,16.81.12,2.4,17.56,11.74,15.74,18.38l-37.03,40.66,7.41,6.73-37.59,44.24-8.87-8.11-13.46,14.82-8.87-8.11-13.47,14.8-186.31-169.68-13.47,14.79-53.23-48.48-93.06,99.19-3.84-5.94-6.92,2.78-354.11,388.9,6.25,9.75-13.71,13.57-8.08-6.19-12.11,13.32,76.15,69.35,1.28,5.6-11.07,12.55,59.51,54.56.2,4.24-11.07,12.55,15.85,16.96-11.57,13.99,15.85,16.96-11.57,13.99c2.81,2.73,8.46,5.84,6.47,10.32l-11.07,12.55,104.51,96.34-11.51,15.4,24.66,23.62-11.51,15.4,15.79,15.54-11.51,15.4,6.98,8.88-35.82,40.6,6.92,7.47-12.23,14.91-9.49-6.11-25.59,28.1-8.87-8.09-13.46,14.82-8.87-8.11-13.46,14.82-17.75-16.19-13.46,14.82-8.87-8.11-13.46,14.82-17.75-16.19-13.47,14.8-159.7-145.44,11.57-13.99-6.98-8.88,11.51-15.4-6.91-7.46,40.4-44.36,8.87,8.08,26.26-28.83-.62-4.1-4.98-2.83-.15-4.02c7.34-6.98,17.83-16.7,19.58-26.52l-24.4-22.22,11.49-15.4-15.79-15.54,11.07-12.55-.2-4.24-24.02-22.24c-.1-2,13.73-10.88,11.26-16.81l-33.27-30.3,11.56-13.99-6.97-8.88-263.94,289.82,8.87,8.09,13.47-14.8,59.89,54.54c2.47,5.92-11.36,14.81-11.26,16.81l50.63,46.48.2,4.24-11.07,12.55,24.72,25.04-11.57,13.99,24.66,23.62-11.51,15.4,24.66,23.62-11.51,15.4,15.85,16.96-11.56,13.99,24.4,22.22c2.47,5.92-11.36,14.8-11.26,16.81l15.85,16.96-11.56,13.99,24.4,22.22c2.47,5.92-11.36,14.8-11.26,16.81l24.66,23.62-11.51,15.4,8.01,7.33,14.34-14.05,17.75,16.19,13.47-14.8,26.62,24.24,13.47-14.8,17.75,16.19,13.47-14.8,26.62,24.24,13.47-14.79,68.76,62.62c2.48,5.85-11.42,14.93-11.26,16.8,13.51,8.94,3.11,14.01-4.58,22.88l-8.87-8.11-13.46,14.82-8.87-8.09-26.93,29.57-8.87-8.09-13.46,14.82-8.87-8.11-10.77,11.86-17.75-16.19-13.46,14.82-8.87-8.11-13.46,14.82-8.87-8.11-13.46,14.82-8.87-8.11-13.46,14.82-17.75-16.19-13.46,14.82-8.87-8.11-13.46,14.82-8.87-8.11-13.46,14.82-17.75-16.19-13.46,14.82-8.87-8.11-13.46,14.82-17.75-16.19-13.47,14.8-44.36-40.4,11.05-12.55c1.99-4.48-3.67-7.59-6.47-10.32l11.57-13.99-15.85-16.96,11.51-15.4-15.79-15.54,11.51-15.4-15.79-15.54,11.58-13.99-6.98-8.88,11.07-12.55c1.99-4.48-3.66-7.59-6.47-10.32l11.57-13.99-15.85-16.96,11.51-15.4-15.79-15.54,11.51-15.4-15.79-15.54,11.51-15.4-24.66-23.62,8.38-9.6-.2-4.23-24.02-22.24,11.07-12.55-.2-4.24-41.76-38.4c-.1-2,13.73-10.88,11.26-16.81l-42.14-38.38,26.93-29.57,8.87,8.09,13.46-14.82,24,22.25.2,4.24-11.07,12.55,50.63,46.48.2,4.24-11.07,12.55,24.72,25.04-11.57,13.99,33.53,31.7-11.51,15.4,15.85,16.96-11.57,13.99,15.79,15.54-8.81,12.45,15.85,16.96-11.57,13.99,15.85,16.96-11.57,13.99c2.81,2.73,8.46,5.84,6.47,10.32l-11.07,12.55,15.79,15.54-11.51,15.4c2.81,2.73,8.46,5.84,6.47,10.32l-11.07,12.55,15.79,15.54-11.51,15.4,15.79,15.54-11.51,15.4,8.89,8.09,13.46-14.82,17.75,16.19,13.46-14.82,8.87,8.11,13.46-14.82,17.75,16.19,13.46-14.82,8.87,8.11,13.46-14.82,8.87,8.11,13.46-14.82,17.75,16.19,13.46-14.82,8.87,8.11,10.77-11.86,8.87,8.11,13.46-14.82,8.87,8.11,13.46-14.82,8.87,8.11,11.56-14-15.84-16.97-13.47,14.82-17.75-16.19-13.47,14.8-26.62-24.24-13.47,14.8-17.75-16.19-10.77,11.84-26.62-24.24-13.47,14.8-17.76-16.17,11.51-15.4-24.66-23.62,8.81-12.45-15.79-15.54,11.51-15.4-24.66-23.62c-.1-2,13.73-10.88,11.26-16.81l-24.4-22.22,11.49-15.4-17.26-16.89,12.11-13.31-23.78-24.37c-.1-2.01,13.73-10.88,11.26-16.81l-24.4-22.22,11.56-13.99-15.85-16.96,11.51-15.4-51.27-47.86c-.1-2,13.73-10.88,11.26-16.81l-68.76-62.62-172.37,189.27,6.85,10.3-65.31,71.72-8.87-8.08-40.4,44.36-8.87-8.08-51.17,56.19-8.87-8.08-67.33,73.93-8.87-8.08-26.93,29.57-8.87-8.08-26.93,29.57-17.74-16.17-10.77,11.86-8.87-8.11-13.46,14.82-8.87-8.11-13.46,14.82-8.87-8.11-13.46,14.82-8.87-8.11-13.46,14.82-8.87-8.11-13.46,14.82-8.87-8.11-13.46,14.82-8.87-8.11-13.46,14.82-8.87-8.11-13.46,14.82-8.87-8.11-13.46,14.82-17.75-16.19-14.34,14.05-8.01-7.33,11.51-15.4-15.79-15.54,11.58-13.99-6.98-8.88,11.58-13.98-6.98-8.88,11.58-13.98-6.98-8.88,11.58-13.98-6.98-8.88,11.59-13.99-6.51-11.1,10.98-11.73-15.75-16.99,11.07-12.55c1.99-4.48-3.66-7.59-6.47-10.32l11.57-13.99-15.85-16.96,11.58-13.99-6.98-8.88,21.84-24.38c1.99-4.49-3.66-7.59-6.47-10.32l11.52-15.4-6.92-7.47,24.53-27.33c1.99-4.49-3.66-7.59-6.47-10.32l24.53-27.33c1.99-4.49-3.66-7.59-6.47-10.32l11.52-15.4-6.92-7.47,25.04-28.77-6.98-8.88,11.52-15.4-6.92-7.47,35.3-39.16c2.63-5.86-12-14-15.34-18.4l197.1-220.87-42.14-38.38-13.47,14.79-26.62-24.24-13.47,14.79-26.62-24.24-10.77,11.84-17.75-16.19-13.46,14.82-8.87-8.11-13.46,14.82-8.87-8.11-13.46,14.82-8.87-8.11-13.46,14.82-8.87-8.11-13.46,14.82-8.87-8.11-13.46,14.82-8.87-8.11-13.46,14.82-8.87-8.09-26.93,29.57-8.87-8.09-13.46,14.82-8.87-8.09-26.93,29.57-8.87-8.09-10.77,11.86-8.87-8.09-26.93,29.57-8.87-8.09-13.46,14.82-8.87-8.11-13.47,14.8-44.36-40.4,11.49-15.4-15.77-15.54,24.91-27.36c1.82-6.64-15.62-15.98-15.74-18.38l11.58-13.99-6.99-8.88,8.83-12.44-6.92-7.47,11.51-15.4-15.79-15.54,11.58-13.99-6.98-8.88,11.58-13.98-6.98-8.88,11.59-13.99-6.52-11.07,11.05-11.81-6.26-6.74,24.36-30.9-6.97-8.88,53.87-59.15,8.87,8.09,13.46-14.82,50.62,46.49.2,4.24-11.07,12.55,24.02,22.24.2,4.24-11.07,12.55,15.85,16.96-11.57,13.99c2.81,2.73,8.46,5.84,6.47,10.32l-11.05,12.55,26.62,24.24,26.93-29.57,8.87,8.09,13.46-14.82,8.87,8.11,13.46-14.82,8.87,8.11,10.77-11.86,8.87,8.09,26.93-29.57,17.74,16.17,13.46-14.82,8.87,8.11,13.46-14.82,17.75,16.19,13.47-14.8,26.62,24.24,13.47-14.8,8.87,8.11,13.47-14.8,35.49,32.32,13.47-14.8,87.24,79.46,12.85-12.81,10.97,7.47,12.37-14.04-.2-4.11-5.56-5.57c4.44-3.44,7.57-9.69,10.77-13.21l38.38-42.14,8.87,8.08,38.38-42.14-6.85-10.3,67.33-73.93,8.87,8.08,38.38-42.14-.2-4.24-33.27-30.3-13.47,14.8-8.87-8.11-13.46,14.82-17.75-16.19-13.47,14.82-17.75-16.19-13.46,14.82-8.87-8.11-13.46,14.82-9.56-7.54-14.26,12.9-7.4-6.76-12.84,12.83-9.5-6.12-13.46,14.81-8.87-8.09-26.93,29.57-8.87-8.09-13.46,14.82-17.75-16.19-13.47,14.82-17.75-16.19-10.77,11.84-35.49-32.32-13.47,14.79-106.47-96.96,11.49-15.4-15.79-15.54,8.81-12.45-15.79-15.54,11.51-15.4-15.77-15.54,53.87-59.15,8.87,8.09,13.46-14.82,8.87,8.11,13.46-14.82,8.87,8.11,13.46-14.82,17.75,16.19,13.47-14.82,17.75,16.19,13.47-14.82,17.75,16.19,13.47-14.8,53.23,48.48,13.47-14.79,6.96,8.88-10.74,14.79,8.05,7.3,13.46-14.82,62.11,56.59,10.77-11.86,8.87,8.11,13.46-14.82,8.87,8.11,13.46-14.82,8.87,8.11,13.46-14.82,8.87,8.11,13.47-14.81,6.96,8.88-11.58,13.99,8.89,8.08,26.93-29.57,17.74,16.17,13.47-14.82,17.75,16.19,13.46-14.82,8.87,8.11,13.47-14.8,26.62,24.24,13.47-14.79,6.84,10.3-24.91,27.36-8.87-8.09-13.46,14.82-26.62-24.27-13.46,14.82-8.87-8.11-13.46,14.82-17.75-16.19-13.46,14.82-8.87-8.11-13.47,14.8-26.62-24.24-26.93,29.57-8.87-8.09-10.77,11.86-8.87-8.11-13.46,14.82-17.75-16.19-13.47,14.82-17.75-16.19-13.46,14.82-8.89-8.09,11.5-15.4-6.89-7.47-13.47,14.81-8.32-8.86c-1.11-3.37,13.83-9.4,10.7-16.04l-24.4-22.22-13.47,14.79-44.36-40.4-13.47,14.79-26.62-24.24-13.46,14.8-16.87-14.25-14.34,12.87-8.87-8.11-13.46,14.82-8.87-8.09-40.4,44.36,15.77,15.54-11.51,15.4,15.79,15.54-11.49,15.4,79.85,72.72,13.47-14.79,26.62,24.24,13.47-14.8,17.75,16.19,13.46-14.82,8.87,8.11,13.46-14.82,8.87,8.11,13.46-14.82,8.87,8.09,26.93-29.57,8.87,8.09,13.46-14.82,17.75,16.19,13.46-14.82,8.87,8.11,13.46-14.82,17.75,16.19,13.46-14.82,8.87,8.11,12.12-13.3,19.09,14.67,10.77-11.85,26.62,24.24,13.47-14.8,17.75,16.19,13.46-14.82,8.87,8.09,53.87-59.15,8.87,8.09c2.55-3.39,6.53-6.27,8.89-9.64,6.84-9.72-6.18-10.6-3.31-16.69l39.41-40.93,8.87,8.09,91.57-100.55,8.87,8.09,11.57-14-6.98-8.88c7.31-7.02,13.57-16.2,20.88-23.05,10.62-9.97,6.26.53,15.61.82l144.77-158.96,6.97,8.88-11.57,13.99,6.92,7.47-1.4,4.31-63.42,66.86-8.08-6.19c-2.68,3.74-10.89,9.35-10.08,14.01.35,1.98,6.44,2.97,4.75,8.15-1.95,4.15-5.8,9.08-9.37,11.79-7.1,5.41-6.85-5.06-11.47-3.83l-12.21,14.92,6.71,4.58-25.45,30.71-7.98-5.9-14.36,12.82,6.86,10.3-288.86,317.18-8.87-8.08-26.26,28.83,6.22,8.13-10.87,13.51-10.29-5.31-12.68,13.98,6.92,7.47c.42,1.76-.55,2.93-1.4,4.31-3.38,5.53-29.74,34.38-35.01,38.44-6.75,5.19-6.71-3.43-10.02-3.92-5.17-.78-22.34,23.37-27.82,27.64l6.92,7.47c1.55,6.41-15.28,16.21-19.17,20.6-3.46,3.91-5.19,8.95-9.04,13.28-99.02,111.33-201.85,219.41-301.12,330.49,2.81,2.73,8.46,5.83,6.47,10.32l-24.53,27.33,6.92,7.47-8.83,12.44c2.82,2.72,8.47,5.84,6.47,10.32l-24.53,27.33,6.92,7.47-11.52,15.4c2.81,2.73,8.46,5.83,6.47,10.32l-24.53,27.33,6.92,7.47-11.52,15.4c2.81,2.73,8.46,5.83,6.47,10.32l-24.53,27.33,6.92,7.47-11.52,15.4,6.98,8.88-11.58,13.98,6.98,8.88-11.58,13.98,6.98,8.88-11.58,13.98,6.92,7.47-8.83,12.44,6.99,8.88-11.58,13.99,15.79,15.54-11.51,15.4c2.81,2.73,8.46,5.84,6.47,10.32l-11.07,12.55,8.89,8.08,49.15-53.97-6.85-10.3,148.13-162.66,8.87,8.09,12.37-14.04-1.2-5.65-15.46-11.28,10.79-11.85,8.87,8.11,11.5-15.42-6.91-7.46,53.87-59.15,8.87,8.08,78.78-86.5-6.13-11.17,12.75-13.93,8.87,8.09,49.15-53.97-6.86-10.3,13.47-14.8,8.87,8.11,11.5-15.42-6.91-7.46,26.93-29.57,8.87,8.09,11.57-14-6.98-8.88,12.68-13.96,9.67,7.27c14.25-17.26,28.03-34.85,43.63-51.03,4.27-4.43,20.41-14.79,19.05-20.57l-6.91-7.46,26.93-29.57,8.87,8.08,212.77-233.63,8.87,8.09,11.5-15.42-6.92-7.47,13.48-14.8,8.87,8.09,26.93-29.57,8.87,8.09,13.46-14.82c12.89,11.8,24.25,15.83,4.75,28.76l6.38,12.5-24.91,27.36-8.87-8.08-253.17,277.99-7.99-6.11-27.83,27.6,6.98,8.88-8.87,11.04-8.87-8.09-26.93,29.57,6.91,7.46-22.97,27.58c-4.28,2.4-7.9-2.94-10.88-5.48l-12.74,13.92,6.25,9.75-11.57,14-17.75-16.19-13.48,14.8,15.85,16.96-11.56,14-8.87-8.09-91.57,100.55,6.91,7.46c1.51,6.34-46.01,50.13-53.39,58.4l-3.84-5.94c-2.32-.88-3.78.07-5.57,1.45-17.28,13.36-33.7,41.22-51.12,56.05l6.19,8.34-1.4,4.31-168.29,184.7,6.19,8.34-62.69,71.59,6.98,8.88-11.58,13.99,8.89,8.09,13.46-14.82,8.87,8.11,13.46-14.82,8.87,8.11,13.46-14.82,8.87,8.11,10.77-11.86,8.87,8.11,13.46-14.82,8.87,8.11,13.46-14.82,8.87,8.11,13.46-14.82,8.87,8.11,13.46-14.81,9.54,6.06c1.9-6.99,9.73-9.38,12.13-12.01l41.07-45.1,8.87,8.08,26.93-29.57,8.87,8.08,64.64-70.98,8.87,8.08,26.93-29.57,8.87,8.09,11.5-15.42-6.91-7.46,503.65-553.03,8.87,8.08,51.85-56.93-6.86-10.3,170.42-189.88-6.91-7.46,185.84-204.06,8.87,8.08,78.11-85.76,8.87,8.08,65.31-71.72-.2-4.24-42.14-38.38c3.89-5.37,12.1-9.6,11.25-16.81l-148.61-135.34-13.47,14.79-115.34-105.04-40.4,44.36-15.51-12.55-1.16-4.36,13.22-12.09,7.3,5.6,12.25-14.87-6.92-7.47c-.16-1.88,13.74-10.95,11.26-16.8l-33.27-30.3-13.47,14.79-35.49-32.32c3.89-5.37,12.1-9.6,11.25-16.81l-166.35-151.5c4.41-4.97,9.08-9.8,13.47-14.79,5.7,5.57,12,10.65,17.74,16.17l11.56-14-.7-2.8c-4.77-4.95-9.9-9.73-15.13-14.16l.02.02h0ZM3107.53,862.24l24.91-27.36c.66-8.44-13.3-12.51-15.22-19.17l10.66-11.84-.31-4.05-154.86-141.53-5.7-.75-11.47,12.16-96.11-87.53-13.47,14.82-17.75-16.19-13.46,14.82-8.87-8.09-26.93,29.57,24.4,22.22c.85,7.21-7.36,11.44-11.25,16.81l239.55,218.16,13.47-14.8,17.75,16.19,13.46-14.82,8.87,8.11,13.46-14.82,8.87,8.09h0ZM2964.69,653.73c-4.55-6.24-8.96,5.72-12.36,7.66,5.41,2.23,7.4-6.32,12.36-7.66ZM2899.98,965.38l62.62-68.76-.2-4.24-175.22-159.58-51.17,56.19,68.76,62.62c4.59,1.97,9.24-13.22,13.73-9.14l42.88,39.05,4.07-.66,8.78-11.96c2.66.13,36.8,29.72,40.68,34.19,1.92,2.21,3.64,3.65,3.01,6.94l-22.22,24.4-8.87-8.09-13.47,14.8-26.62-24.24-13.47,14.79-79.85-72.72-13.47,14.79-44.36-40.4-68.83,72.59,19.24,17.52,13.47-14.8,62.1,56.56,13.47-14.79,77.63,70.7.2,4.24-24.91,27.36-10.97-7.45-12.86,12.8-69.49-63.29-13.47,14.8-70.98-64.64-13.47,14.8-17.74-16.17-51.17,56.19,34.75,31.65,4.07-.66,8.78-11.96,88.1,78.69-11.51,15.4c.12,2.39,17.56,11.74,15.74,18.38l-24.91,27.36-106.47-96.96-13.47,14.79-35.49-32.32-53.87,59.15,148.61,135.34.2,4.24-24.91,27.36-35.49-32.32-13.47,14.79-124.21-113.12-131.97,144.91-8.87-8.08-40.4,44.36,159.7,145.44,53.87-59.15,8.87,8.08,51.85-56.93-6.85-10.3,40.4-44.36,8.87,8.08,24.24-26.62,8.87,8.08,134.67-147.87,8.87,8.08,26.93-29.57,8.87,8.09,10.77-11.86,8.87,8.09,51.85-56.93-6.85-10.3,94.27-103.51,8.87,8.08.02-.02h0ZM2646.47,872.46l-24.24,26.62,3.58,1.96c3.73-9.78,13.32-18.02,21.6-24.31,3.15-2.39,1.47-1.9-.94-4.26h0ZM2773.3,1042.1c-4.55-6.24-8.96,5.72-12.36,7.66,5.41,2.23,7.4-6.32,12.36-7.66ZM2622.1,1805.17l35.69-39.19-.2-4.24-42.14-38.38-10.77,11.83-275.04-250.48-13.47,14.79-470.22-428.24-40.4,44.36,35.49,32.32,13.47-14.79,647.67,589.84,13.47-14.79,106.47,96.96h-.02ZM2676.85,1825.25c.47-5.02,8.12-6.62,5.13-11.54-2.13,3.67-11.53,7.96-5.13,11.54ZM2268.7,1756.56l-2.94-2.68-6.71,7.39,1.45,1.32,8.21-6.02h-.01ZM1924.69,2316.99l-104.25-94.94-26.93,29.57,77.63,70.7c2.47,5.93-11.36,14.8-11.26,16.81l15.79,15.54-11.51,15.4,15.85,16.96-11.56,13.99,24.4,22.22c2.48,5.85-11.42,14.93-11.26,16.8,2.81,2.73,8.46,5.84,6.47,10.32l-11.07,12.55,6.86,10.3-76.09,83.55,115.34,105.04,13.47-14.8,17.75,16.19,13.47-14.82,17.75,16.19,13.46-14.82,8.87,8.09,35.69-39.19-6.86-10.3,11.07-12.55c1.99-4.48-3.66-7.59-6.47-10.32l11.51-15.4-33.53-31.7c-.1-2,13.73-10.88,11.26-16.81l-24.4-22.22-13.47,14.79-53.23-48.48,11.49-15.4-15.79-15.54,11.07-12.55c1.99-4.48-3.67-7.59-6.47-10.32l11.51-15.4-15.79-15.54,11.07-12.55-.2-4.24-32.89-30.32c2.72-3.71,13.9-12.33,11.26-16.81h0ZM1109.72,2267.3l-33.27-30.3-13.47,14.79-35.49-32.32-13.47,14.79-26.62-24.24-13.47,14.79-26.62-24.24-14.27,12.87-25.05-21.26-4.24.2-11.47,12.19-16.27-14.83-26.93,29.57-8.87-8.09-10.77,11.86-8.87-8.11-13.46,14.82-8.87-8.11-13.46,14.82-8.87-8.09-26.93,29.57-8.87-8.08-26.93,29.57-8.87-8.09-13.47,14.8-26.62-24.24-13.47,14.8-8.89-8.09,11.07-12.55c1.99-4.48-3.67-7.59-6.47-10.32l11.57-13.99-15.85-16.96,11.07-12.55c1.99-4.48-3.67-7.59-6.47-10.32l11.57-13.99-15.85-16.96,11.51-15.4-15.79-15.54,11.51-15.4-15.77-15.54-53.87,59.15,6.91,7.46-11.51,15.4,6.98,8.88-11.58,13.98,6.98,8.88-11.58,13.98,6.98,8.88-11.58,13.99,15.85,16.96-11.57,13.99,6.98,8.88-11.58,13.98,6.98,8.88-8.89,11.03,6.99,8.88-11.57,13.99,26.62,24.24,14.3-12.84,7.3,5.6,11.51-11.31,8.87,8.09,26.93-29.57,8.87,8.09,13.46-14.82,8.87,8.09,26.93-29.57,8.87,8.09,13.46-14.82,8.87,8.09,26.93-29.57,8.87,8.09,13.46-14.82,17.75,16.19,25.58-28.1,19.1,14.68,13.46-14.81,8.87,8.11,10.77-11.86,17.75,16.19,13.47-14.82,17.75,16.19,13.47-14.8,26.62,24.24,13.47-14.8,17.75,16.19,14.26-12.89,41.33,36.08,4.24-.2,11.47-12.19,17.75,16.19c7.69-8.87,18.09-13.94,4.58-22.88,2.71-3.71,13.9-12.32,11.26-16.8h.02,0ZM1146.7,2649.96c-4.55-6.24-8.96,5.72-12.36,7.66,5.41,2.23,7.4-6.32,12.36-7.66Z"/>
    <path d="M1807.13,1755.48c-4.39,4.99-9.06,9.82-13.48,14.78l6.98,8.88-11.57,13.99,130.86,119.18.2,4.24-38.38,42.14-8.87-8.08-26.93,29.57-8.87-8.09-13.46,14.82-8.87-8.11-13.46,14.82-44.38-40.41,11.51-15.4-24.66-23.62,11.07-12.55c1.99-4.48-3.67-7.59-6.47-10.32l11.57-13.99-15.85-16.96,11.58-13.99-6.98-8.88,24.53-27.33c1.99-4.49-3.66-7.59-6.47-10.32-.16-1.87,13.74-10.95,11.26-16.8l-33.27-30.3,11.57-13.99-6.97-8.88,26.93-29.57,6.85,10.3-24.91,27.36,7.39,6.75,41.88-43.04,8.87,8.11,10.78-11.85c2.83,2.67,8.44,5.89,6.45,10.32l-35.31,39.17c2.94,2.69,5.93,5.39,8.89,8.08,8.79-9.99,18.1-19.64,26.94-29.58,18.22,10.89-11.62,26.16-18.07,37.68-2.96-2.68-5.92-5.4-8.87-8.1v-.03h0ZM1832.8,1941.16l24.91-27.36-.2-4.24-59.89-54.54-13.48,14.78,6.98,8.88-11.57,13.99,53.23,48.48h.02,0Z"/>
    <path d="M1944.01,1533.89l8.87,8.09,13.46-14.82,8.87,8.11,13.47-14.81c18.22,10.89-11.61,26.17-18.08,37.66l6.92,7.47-11.51,15.4,6.86,10.3-65.31,71.72-35.49-32.32,11.57-13.99-6.98-8.88,24.53-27.33c1.99-4.49-3.66-7.59-6.47-10.32l13.48-14.8,8.87,8.09,26.93-29.57h0Z"/>
    <polygon points="2134.61 1734.51 2141.46 1744.81 2089.61 1801.74 2080.74 1793.64 2067.27 1808.45 2040.66 1784.21 2065.57 1756.85 2058.72 1746.55 2099.12 1702.19 2107.99 1710.27 2134.92 1680.7 2159.32 1702.92 2159.52 1707.16 2134.61 1734.51"/>
    <path d="M2011.19,1865.57c2.38,4.03-6,10.78-8.57,13.85l6.87,10.3-24.91,27.36-44.36-40.4,37.71-41.4,33.27,30.3h-.01Z"/>
    <polygon points="1846.1 1498.82 1855.6 1504.93 1868.45 1492.11 1875.34 1499.58 1850.37 1529.56 1840.95 1523.67 1827.31 1535.98 1817.82 1529.87 1846.1 1498.82"/>
    <path d="M1916.8,1436.05l-9.46,10.35c3.03,3.08,10.12,6.85,7.95,11.66l-11.05,12.57-17.76-16.17,22.9-25.13,7.41,6.72h.01Z"/>
    <path d="M1941.95,1429.23l-17.76-16.17,13.48-14.8,15.77,15.56c.99,4.36-8.83,11.54-11.49,15.42h0Z"/>
    <polygon points="2301.59 1248.18 2310.46 1256.28 2323.93 1241.46 2436.65 1344.51 2436.85 1348.75 2425.79 1361.3 2432.71 1368.76 2421.21 1384.18 2412.33 1376.07 2398.87 1390.87 2274.66 1277.76 2301.59 1248.18"/>
  </g>
</svg>